<?xml version="1.0" standalone="no"?>
<!DOCTYPE svg PUBLIC "-//W3C//DTD SVG 20010904//EN"
 "http://www.w3.org/TR/2001/REC-SVG-20010904/DTD/svg10.dtd">
<svg version="1.0" xmlns="http://www.w3.org/2000/svg"
 width="180.000000pt" height="180.000000pt" viewBox="0 0 180.000000 180.000000"
 preserveAspectRatio="xMidYMid meet">
<metadata>
Created by potrace 1.11, written by Peter Selinger 2001-2013
</metadata>
<g transform="translate(0.000000,180.000000) scale(0.100000,-0.100000)"
fill="#000000" stroke="none">
<path d="M174 1776 c-65 -30 -120 -85 -150 -150 l-24 -51 0 -675 0 -675 24
-50 c12 -27 37 -65 54 -84 21 -21 32 -43 32 -62 l0 -29 790 0 790 0 0 29 c0
19 11 41 32 62 17 19 42 57 54 84 l24 50 0 675 0 675 -24 51 c-30 65 -85 120
-150 150 l-51 24 -675 0 -675 0 -51 -24z"/>
</g>
</svg>
