<?xml version="1.0" encoding="UTF-8"?>
<svg xmlns="http://www.w3.org/2000/svg" xmlns:xlink="http://www.w3.org/1999/xlink" width="276" height="128" viewBox="0 0 276 128" version="1.1">
<g id="surface1">
<path style=" stroke:none;fill-rule:evenodd;fill:rgb(30.588235%,27.058824%,58.823529%);fill-opacity:1;" d="M 112.359375 3.566406 L 63.269531 0.03125 C 56.445312 -0.457031 50.464844 4.71875 49.96875 11.53125 L 48.894531 26.445312 L 54.351562 25.996094 L 55.367188 11.917969 C 55.644531 8.09375 59.054688 5.144531 62.882812 5.421875 L 111.972656 8.957031 C 115.804688 9.234375 118.753906 12.636719 118.476562 16.464844 L 115.757812 54.164062 C 115.695312 55.023438 115.472656 55.867188 115.101562 56.644531 L 120.542969 57.578125 C 120.871094 56.601562 121.074219 55.585938 121.144531 54.554688 L 123.867188 16.855469 C 124.359375 10.035156 119.179688 4.058594 112.359375 3.566406 Z M 112.359375 3.566406 "/>
<path style=" stroke:none;fill-rule:nonzero;fill:rgb(22.745098%,37.647059%,66.666667%);fill-opacity:1;" d="M 63.582031 96.605469 C 63.707031 95.796875 63.835938 94.988281 63.960938 94.183594 L 49.585938 95.894531 L 37.183594 105.164062 L 36.265625 97.484375 L 22.324219 99.144531 C 17.3125 99.742188 12.699219 96.117188 12.101562 91.109375 L 6.472656 44.003906 C 5.875 39 9.507812 34.390625 14.519531 33.792969 L 75.851562 26.480469 C 80.863281 25.882812 85.476562 29.511719 86.074219 34.519531 C 86.671875 39.527344 87.269531 44.550781 87.871094 49.570312 L 94.449219 50.589844 L 92.441406 33.757812 C 91.421875 25.242188 83.617188 19.109375 75.09375 20.125 L 13.757812 27.433594 C 5.234375 28.449219 -0.90625 36.25 0.109375 44.765625 L 5.742188 91.863281 C 6.757812 100.378906 14.5625 106.515625 23.085938 105.5 L 30.667969 104.59375 L 32.140625 116.929688 L 52.050781 102.046875 L 63.625 100.664062 C 63.386719 99.324219 63.371094 97.949219 63.582031 96.605469 Z M 63.582031 96.605469 "/>
<path style=" stroke:none;fill-rule:nonzero;fill:rgb(83.137255%,20%,25.882353%);fill-opacity:1;" d="M 132.847656 57.265625 L 95.035156 51.363281 L 88.457031 50.335938 L 84.214844 49.675781 C 77.460938 48.621094 71.0625 53.28125 70.007812 60.03125 C 68.1875 71.671875 66.367188 83.3125 64.546875 94.953125 L 64.167969 97.375 C 63.957031 98.722656 63.96875 100.09375 64.207031 101.4375 C 65.113281 106.519531 69.160156 110.726562 74.535156 111.566406 L 100.195312 115.570312 L 115.621094 127.996094 L 117.152344 118.21875 L 123.160156 119.15625 C 129.917969 120.210938 136.3125 115.550781 137.367188 108.796875 L 143.210938 71.453125 C 144.269531 64.707031 139.601562 58.320312 132.847656 57.265625 Z M 137.867188 70.625 L 132.027344 107.96875 C 131.433594 111.757812 127.792969 114.414062 124 113.820312 L 112.644531 112.050781 L 111.726562 117.921875 L 102.464844 110.460938 L 75.371094 106.230469 C 72.460938 105.777344 70.21875 103.53125 69.601562 100.796875 C 69.410156 99.949219 69.378906 99.070312 69.511719 98.210938 C 69.71875 96.902344 69.921875 95.59375 70.128906 94.289062 C 71.871094 83.148438 73.613281 72.003906 75.355469 60.863281 C 75.949219 57.074219 79.589844 54.417969 83.382812 55.011719 L 89.125 55.90625 L 95.699219 56.933594 L 132.011719 62.601562 C 135.804688 63.195312 138.460938 66.835938 137.867188 70.625 Z M 137.867188 70.625 "/>
<path style=" stroke:none;fill-rule:nonzero;fill:rgb(22.745098%,37.647059%,66.666667%);fill-opacity:1;" d="M 174.355469 76.125 C 174.355469 81.8125 169.625 86.496094 163.890625 86.496094 L 163.890625 82.5625 C 167.492188 82.5625 170.378906 79.679688 170.378906 76.125 L 170.378906 74.160156 C 168.621094 75.625 166.363281 76.460938 163.890625 76.460938 C 158.160156 76.460938 153.597656 71.691406 153.472656 66.007812 L 153.472656 55.804688 L 157.363281 55.804688 L 157.363281 66.046875 C 157.363281 69.644531 160.292969 72.53125 163.890625 72.53125 C 165.613281 72.535156 167.269531 71.855469 168.484375 70.636719 C 169.703125 69.421875 170.386719 67.769531 170.378906 66.046875 L 170.378906 55.804688 L 174.355469 55.804688 Z M 174.355469 76.125 "/>
<path style=" stroke:none;fill-rule:nonzero;fill:rgb(22.745098%,37.647059%,66.666667%);fill-opacity:1;" d="M 201.730469 76.417969 C 199.429688 76.042969 197.671875 74.242188 196.414062 72.402344 C 194.492188 74.953125 191.476562 76.5 188.085938 76.5 C 182.308594 76.5 177.621094 71.820312 177.621094 66.007812 C 177.621094 60.238281 182.308594 55.597656 188.085938 55.597656 C 193.902344 55.597656 198.507812 60.238281 198.507812 66.007812 L 198.507812 66.886719 C 198.507812 69.226562 199.804688 71.484375 201.730469 72.488281 Z M 188.085938 59.566406 C 184.445312 59.566406 181.558594 62.410156 181.558594 66.007812 C 181.558594 69.644531 184.445312 72.570312 188.085938 72.570312 C 191.726562 72.570312 194.574219 69.644531 194.574219 66.007812 C 194.574219 62.410156 191.726562 59.566406 188.085938 59.566406 Z M 188.085938 59.566406 "/>
<path style=" stroke:none;fill-rule:nonzero;fill:rgb(22.745098%,37.647059%,66.666667%);fill-opacity:1;" d="M 207.046875 55.722656 L 207.003906 55.761719 L 212.90625 55.761719 L 212.90625 59.695312 L 207.003906 59.695312 L 207.042969 76.5 L 203.152344 76.5 L 203.152344 55.636719 C 203.144531 52.875 204.242188 50.222656 206.195312 48.269531 C 208.152344 46.316406 210.808594 45.21875 213.574219 45.226562 L 213.574219 49.117188 C 209.976562 49.117188 207.046875 52.125 207.046875 55.722656 Z M 207.046875 55.722656 "/>
<path style=" stroke:none;fill-rule:nonzero;fill:rgb(26.666667%,26.27451%,25.882353%);fill-opacity:1;" d="M 214.703125 74.113281 C 214.710938 72.59375 215.941406 71.363281 217.464844 71.355469 C 218.210938 71.355469 218.859375 71.628906 219.40625 72.171875 C 219.949219 72.71875 220.222656 73.363281 220.222656 74.113281 C 220.21875 75.226562 219.546875 76.226562 218.519531 76.65625 C 217.492188 77.085938 216.304688 76.855469 215.511719 76.074219 C 214.972656 75.542969 214.703125 74.886719 214.703125 74.113281 Z M 214.703125 74.113281 "/>
<path style=" stroke:none;fill-rule:nonzero;fill:rgb(26.666667%,26.27451%,25.882353%);fill-opacity:1;" d="M 221.496094 49.449219 L 240.75 69.21875 L 240.75 50.492188 L 244.308594 50.492188 L 244.308594 77.707031 L 225.054688 58.027344 L 225.054688 76.503906 L 221.5 76.503906 Z M 221.496094 49.449219 "/>
<path style=" stroke:none;fill-rule:nonzero;fill:rgb(26.666667%,26.27451%,25.882353%);fill-opacity:1;" d="M 246.195312 50.492188 L 260.621094 50.492188 L 260.621094 54.042969 L 249.710938 54.042969 L 249.710938 60.535156 L 260.621094 60.535156 L 260.621094 64.046875 L 249.710938 64.046875 L 249.710938 72.988281 L 260.621094 72.988281 L 260.621094 76.5 L 246.195312 76.5 Z M 246.195312 50.492188 "/>
<path style=" stroke:none;fill-rule:nonzero;fill:rgb(26.666667%,26.27451%,25.882353%);fill-opacity:1;" d="M 260.078125 50.492188 L 276 50.492188 L 276 54.042969 L 269.785156 54.042969 L 269.785156 76.503906 L 266.269531 76.503906 L 266.269531 54.042969 L 260.078125 54.042969 Z M 260.078125 50.492188 "/>
</g>
</svg>
